<svg width="252" height="243" viewBox="0 0 252 243" fill="none" xmlns="http://www.w3.org/2000/svg">
<g filter="url(#filter0_d_4_4)">
<g clip-path="url(#clip0_4_4)">
<mask id="path-3-inside-1_4_4" fill="white">
<path d="M5.5 5H126V121.5H5.5V5Z"/>
</mask>
<path d="M5.5 5H126V121.5H5.5V5Z" fill="#0EA5E9"/>
<path d="M56.4062 60L64.25 54.7188C65.5625 53.8438 66.5 52.9896 67.0625 52.1562C67.625 51.3021 67.9062 50.2396 67.9062 48.9688C67.9062 47.8854 67.4896 46.8854 66.6562 45.9688C65.8229 45.0521 64.6458 44.5938 63.125 44.5938C62.0625 44.5938 61.1667 44.8438 60.4375 45.3438C59.7083 45.8229 59.1562 46.4688 58.7812 47.2812C58.4271 48.0729 58.25 48.9583 58.25 49.9375C58.25 50.875 58.4896 51.8438 58.9688 52.8438C59.4479 53.8229 60.1042 54.8542 60.9375 55.9375C61.7708 57 62.7083 58.1458 63.75 59.375L85.25 84.75H76.5312L58.9688 64.0938C57.4479 62.2604 56.1042 60.5833 54.9375 59.0625C53.7708 57.5208 52.8646 56.0312 52.2188 54.5938C51.5729 53.1354 51.25 51.6354 51.25 50.0938C51.25 47.7188 51.7396 45.6771 52.7188 43.9688C53.6979 42.2604 55.0833 40.9479 56.875 40.0312C58.6667 39.0938 60.7604 38.625 63.1562 38.625C65.4688 38.625 67.4583 39.0938 69.125 40.0312C70.8125 40.9479 72.1042 42.1667 73 43.6875C73.9167 45.2083 74.375 46.875 74.375 48.6875C74.375 50.125 74.1146 51.4375 73.5938 52.625C73.0729 53.8125 72.3542 54.8958 71.4375 55.875C70.5208 56.8542 69.4583 57.7812 68.25 58.6562L58.7188 65.5938C57.6146 66.4896 56.7917 67.3542 56.25 68.1875C55.7292 69 55.3854 69.75 55.2188 70.4375C55.0521 71.125 54.9688 71.7292 54.9688 72.25C54.9688 73.5833 55.25 74.7917 55.8125 75.875C56.3958 76.9583 57.2396 77.8229 58.3438 78.4688C59.4688 79.0938 60.8333 79.4062 62.4375 79.4062C64.1667 79.4062 65.8438 79.0208 67.4688 78.25C69.0938 77.4583 70.5521 76.3438 71.8438 74.9062C73.1354 73.4688 74.1562 71.75 74.9062 69.75C75.6771 67.75 76.0625 65.5312 76.0625 63.0938H82.5625C82.5625 65.3021 82.3438 67.3958 81.9062 69.375C81.4896 71.3542 80.8125 73.1875 79.875 74.875C78.9583 76.5625 77.75 78.0729 76.25 79.4062C76.1042 79.5521 75.9375 79.7396 75.75 79.9688C75.5833 80.1771 75.4167 80.3542 75.25 80.5C73.4583 82.1458 71.4479 83.375 69.2188 84.1875C67.0104 84.9792 64.6562 85.375 62.1562 85.375C59.1354 85.375 56.5208 84.8229 54.3125 83.7188C52.1042 82.6146 50.3958 81.0938 49.1875 79.1562C48 77.2188 47.4062 75 47.4062 72.5C47.4062 70.6458 47.7917 69.0208 48.5625 67.625C49.3333 66.2083 50.3854 64.8958 51.7188 63.6875C53.0729 62.4583 54.6354 61.2292 56.4062 60Z" fill="white"/>
<path d="M126 121.5V122.5H127V121.5H126ZM125 5V121.5H127V5H125ZM126 120.5H5.5V122.5H126V120.5Z" fill="black" fill-opacity="0.1" mask="url(#path-3-inside-1_4_4)"/>
<mask id="path-6-inside-2_4_4" fill="white">
<path d="M126 5H246.5V121.5H126V5Z"/>
</mask>
<path d="M126 5H246.5V121.5H126V5Z" fill="#0EA5E9"/>
<path d="M188.781 39.25V93.1875H183.75V39.25H188.781Z" fill="white"/>
<path d="M126 121.5H125V122.5H126V121.5ZM246.5 120.5H126V122.5H246.5V120.5ZM127 121.5V5H125V121.5H127Z" fill="black" fill-opacity="0.1" mask="url(#path-6-inside-2_4_4)"/>
</g>
<g clip-path="url(#clip1_4_4)">
<mask id="path-10-inside-3_4_4" fill="white">
<path d="M5.5 121.5H126V238H5.5V121.5Z"/>
</mask>
<path d="M5.5 121.5H126V238H5.5V121.5Z" fill="#0EA5E9"/>
<path d="M68.3182 204.091L64.2273 200.045L78.4318 185.841H42.75V179.932H78.4318L64.2273 165.75L68.3182 161.682L89.5227 182.886L68.3182 204.091Z" fill="white"/>
<path d="M126 121.5H127V120.5H126V121.5ZM5.5 122.5H126V120.5H5.5V122.5ZM125 121.5V238H127V121.5H125Z" fill="black" fill-opacity="0.1" mask="url(#path-10-inside-3_4_4)"/>
<mask id="path-13-inside-4_4_4" fill="white">
<path d="M126 121.5H246.5V238H126V121.5Z"/>
</mask>
<path d="M126 121.5H246.5V238H126V121.5Z" fill="#0EA5E9"/>
<path d="M171.5 180.909V174.932H200.614V180.909H171.5ZM171.5 194.909V188.932H200.614V194.909H171.5Z" fill="white"/>
<path d="M126 121.5V120.5H125V121.5H126ZM126 122.5H246.5V120.5H126V122.5ZM127 238V121.5H125V238H127Z" fill="#0284C7" mask="url(#path-13-inside-4_4_4)"/>
</g>
</g>
<defs>
<filter id="filter0_d_4_4" x="0.5" y="0" width="251" height="243" filterUnits="userSpaceOnUse" color-interpolation-filters="sRGB">
<feFlood flood-opacity="0" result="BackgroundImageFix"/>
<feColorMatrix in="SourceAlpha" type="matrix" values="0 0 0 0 0 0 0 0 0 0 0 0 0 0 0 0 0 0 127 0" result="hardAlpha"/>
<feOffset/>
<feGaussianBlur stdDeviation="2.5"/>
<feComposite in2="hardAlpha" operator="out"/>
<feColorMatrix type="matrix" values="0 0 0 0 0 0 0 0 0 0 0 0 0 0 0 0 0 0 0.2 0"/>
<feBlend mode="normal" in2="BackgroundImageFix" result="effect1_dropShadow_4_4"/>
<feBlend mode="normal" in="SourceGraphic" in2="effect1_dropShadow_4_4" result="shape"/>
</filter>
<clipPath id="clip0_4_4">
<path d="M5.5 55C5.5 27.3858 27.8858 5 55.5 5H196.5C224.114 5 246.5 27.3858 246.5 55V121.5H5.5V55Z" fill="white"/>
</clipPath>
<clipPath id="clip1_4_4">
<path d="M5.5 121.5H246.5V188C246.5 215.614 224.114 238 196.5 238H55.5C27.8858 238 5.5 215.614 5.5 188V121.5Z" fill="white"/>
</clipPath>
</defs>
</svg>
