<svg width="18" height="21" viewBox="0 0 18 21" fill="none" xmlns="http://www.w3.org/2000/svg">
<path d="M8.66 5.5C9.98608 5.5 11.2579 6.02678 12.1955 6.96447C13.1332 7.90215 13.66 9.17392 13.66 10.5C13.66 11.8261 13.1332 13.0979 12.1955 14.0355C11.2579 14.9732 9.98608 15.5 8.66 15.5C7.33392 15.5 6.06215 14.9732 5.12447 14.0355C4.18678 13.0979 3.66 11.8261 3.66 10.5C3.66 9.17392 4.18678 7.90215 5.12447 6.96447C6.06215 6.02678 7.33392 5.5 8.66 5.5ZM8.66 7.5C7.86435 7.5 7.10129 7.81607 6.53868 8.37868C5.97607 8.94129 5.66 9.70435 5.66 10.5C5.66 11.2956 5.97607 12.0587 6.53868 12.6213C7.10129 13.1839 7.86435 13.5 8.66 13.5C9.45565 13.5 10.2187 13.1839 10.7813 12.6213C11.3439 12.0587 11.66 11.2956 11.66 10.5C11.66 9.70435 11.3439 8.94129 10.7813 8.37868C10.2187 7.81607 9.45565 7.5 8.66 7.5ZM8.66 0.5L11.05 3.92C10.31 3.65 9.5 3.5 8.66 3.5C7.82 3.5 7.01 3.65 6.27 3.92L8.66 0.5ZM0 5.5L4.16 5.15C3.56 5.66 3.02 6.28 2.6 7C2.16 7.74 1.91 8.5 1.77 9.29L0 5.5ZM0.02 15.5L1.78 11.73C1.92 12.5 2.19 13.28 2.61 14C3.03 14.74 3.57 15.36 4.16 15.87L0.02 15.5ZM17.31 5.5L15.54 9.29C15.4 8.5 15.13 7.73 14.71 7C14.29 6.28 13.76 5.65 13.16 5.14L17.31 5.5ZM17.3 15.5L13.16 15.86C13.75 15.35 14.28 14.72 14.7 14C15.12 13.27 15.39 12.5 15.53 11.71L17.3 15.5ZM8.66 20.5L6.25 17.06C6.99 17.33 7.8 17.5 8.66 17.5C9.48 17.5 10.29 17.33 11.03 17.06L8.66 20.5Z" fill="#0EA5E9"/>
</svg>
